<svg class="animated" id="freepik_stories-personal-files" xmlns="http://www.w3.org/2000/svg" viewBox="0 0 500 500" version="1.1" xmlns:xlink="http://www.w3.org/1999/xlink" xmlns:svgjs="http://svgjs.com/svgjs" style="user-select: auto;"><style>svg#freepik_stories-personal-files:not(.animated) .animable {opacity: 0;}svg#freepik_stories-personal-files.animated #freepik--background-complete--inject-30 {animation: 1.6s 1 forwards cubic-bezier(.36,-0.01,.5,1.38) zoomIn;animation-delay: 1s;opacity: 0}svg#freepik_stories-personal-files.animated #freepik--Plant--inject-30 {animation: 1.6s 1 forwards cubic-bezier(.36,-0.01,.5,1.38) slideUp;animation-delay: 1s;opacity: 0}svg#freepik_stories-personal-files.animated #freepik--filing-cabinet--inject-30 {animation: 1.6s 1 forwards cubic-bezier(.36,-0.01,.5,1.38) slideUp;animation-delay: 0s;}svg#freepik_stories-personal-files.animated #freepik--speech-bubble--inject-30 {animation: 1.5s Infinite  linear floating;animation-delay: 0s;}svg#freepik_stories-personal-files.animated #freepik--Character--inject-30 {animation: 1.6s 1 forwards cubic-bezier(.36,-0.01,.5,1.38) slideRight;animation-delay: 0s;}            @keyframes zoomIn {                0% {                    opacity: 0;                    transform: scale(0.5);                }                100% {                    opacity: 1;                    transform: scale(1);                }            }                    @keyframes slideUp {                0% {                    opacity: 0;                    transform: translateY(30px);                }                100% {                    opacity: 1;                    transform: inherit;                }            }                    @keyframes floating {                0% {                    opacity: 1;                    transform: translateY(0px);                }                50% {                    transform: translateY(-10px);                }                100% {                    opacity: 1;                    transform: translateY(0px);                }            }                    @keyframes slideRight {                0% {                    opacity: 0;                    transform: translateX(30px);                }                100% {                    opacity: 1;                    transform: translateX(0);                }            }        </style><g id="freepik--background-complete--inject-30" class="animable" style="transform-origin: 242.016px 249.74px; user-select: auto;"><path d="M220.75,467.65c-1.58-1.36-5.11-5.66-2.39-10.66,1-1.84,3.12-2.75,5-3.55a20.33,20.33,0,0,0,5.53-2.87c3-2.54,3.82-6.78,5.81-10.18,2.28-3.9,6.54-6.82,11-6.62,5.15.24,9.45,4.45,11.4,9.25s2,10.13,2.06,15.31c0,2.87-.11,6.1-2.21,8-1.94,1.79-4.86,1.81-7.49,1.73l-28.17-.87" style="fill: rgb(245, 245, 245); transform-origin: 238.261px 450.922px; user-select: auto;" id="elsi69f4k6es" class="animable"></path><path d="M274.63,390.19H200.55l13.35,79.57a8.87,8.87,0,0,0,6.32,7.08l.26.07c.22.06.43.13.66.17a9.31,9.31,0,0,0,1.5.18l0,.07.36-.06h33a9,9,0,0,0,1.81-.18,8.9,8.9,0,0,0,7.49-7.77l6.44-54.82.29-2.18h0l2.55-21.72Zm-14,50.76h-7.6l.77-23.1h8.81Zm2.71-23.1h7.28L267.93,441h-6.54Zm-21.71,48.69-.47-20.06h10.95l-.67,20.06Zm-11.84-20.06h10.64l.46,20.06h-9.54Zm.82,20.06h-8.92c-.84-5.41-2-12.45-3.14-20.06h10.5ZM229.38,441l-1.79-23.1h12.2l.53,23.1Zm11.68,0-.54-23.1h12.56l-.76,23.1Zm-.66-28.63-.5-21.39H254l-.71,21.39Zm-.74,0h-12.5l-1.67-21.39h13.68Zm-13.24,0H213.19c-.47-3-.92-5.75-1.32-8.27-1.38-8.64-1.9-11.9-2.18-13.12h15.07Zm.43,5.53,1.79,23.1H217.7c-.37-2.35-.74-4.72-1.11-7.09-.86-5.45-1.72-10.9-2.53-16ZM217,441h-7.15l-3.87-23.1h7.38C214.45,425,215.7,432.93,217,441Zm.87,5.53c1.09,6.94,2.16,13.79,3.14,20.06H214.1l-3.36-20.06Zm34.37,20.06.67-20.06h7.31l-1.71,20.06Zm1.8-54.22.71-21.39h10.22l-1.83,21.39Zm-45-21.39c.29,1.55,1.64,10,3.45,21.39H205l-3.59-21.39Zm55.94,75.61H259.2l1.72-20.06h6.36Zm6.36-54.22h-7.45l1.82-21.39h8.14Z" style="fill: rgb(224, 224, 224); transform-origin: 237.59px 433.76px; user-select: auto;" id="el7kpttzit4u2" class="animable"></path><rect x="300.47" y="92.86" width="38.6" height="76.52" style="fill: rgb(245, 245, 245); transform-origin: 319.77px 131.12px; user-select: auto;" id="elco8ufps8mss" class="animable"></rect><rect x="340.56" y="92.86" width="41.71" height="76.52" style="fill: rgb(245, 245, 245); transform-origin: 361.415px 131.12px; user-select: auto;" id="elj0fffi5j66" class="animable"></rect><rect x="340.56" y="174.73" width="41.71" height="73.94" style="fill: rgb(245, 245, 245); transform-origin: 361.415px 211.7px; user-select: auto;" id="elh2nvlkfjqc" class="animable"></rect><polygon points="387.62 91.54 431.54 91.54 431.54 23.66 433.03 23.66 433.03 91.54 468.77 91.54 468.77 22.15 387.62 22.15 387.62 91.54" style="fill: rgb(245, 245, 245); transform-origin: 428.195px 56.845px; user-select: auto;" id="el007y4dc4h02gt" class="animable"></polygon><rect x="433.03" y="92.86" width="35.75" height="76.52" style="fill: rgb(245, 245, 245); transform-origin: 450.905px 131.12px; user-select: auto;" id="elx13z2kw3d88" class="animable"></rect><rect x="433.03" y="174.73" width="35.75" height="73.94" style="fill: rgb(245, 245, 245); transform-origin: 450.905px 211.7px; user-select: auto;" id="el799mgzetmc9" class="animable"></rect><rect x="300.47" y="174.73" width="38.6" height="73.94" style="fill: rgb(245, 245, 245); transform-origin: 319.77px 211.7px; user-select: auto;" id="el4uiyi8kttgl" class="animable"></rect><rect x="387.62" y="174.73" width="43.93" height="73.94" style="fill: rgb(245, 245, 245); transform-origin: 409.585px 211.7px; user-select: auto;" id="el1av2iqbfkyg" class="animable"></rect><rect x="300.47" y="249.99" width="38.6" height="66.63" style="fill: rgb(245, 245, 245); transform-origin: 319.77px 283.305px; user-select: auto;" id="elrisbfxlv3td" class="animable"></rect><rect x="433.03" y="249.99" width="35.75" height="66.63" style="fill: rgb(245, 245, 245); transform-origin: 450.905px 283.305px; user-select: auto;" id="elp8l4logpkhe" class="animable"></rect><polygon points="339.07 91.54 339.07 23.66 340.56 23.66 340.56 91.54 382.27 91.54 382.27 22.15 300.47 22.15 300.47 91.54 339.07 91.54" style="fill: rgb(245, 245, 245); transform-origin: 341.37px 56.845px; user-select: auto;" id="elfzm6snjdcnp" class="animable"></polygon><rect x="387.62" y="249.99" width="43.93" height="66.63" style="fill: rgb(245, 245, 245); transform-origin: 409.585px 283.305px; user-select: auto;" id="elwe5jtuq9bw" class="animable"></rect><rect x="340.56" y="249.99" width="41.71" height="66.63" style="fill: rgb(245, 245, 245); transform-origin: 361.415px 283.305px; user-select: auto;" id="elf9usc2oys3m" class="animable"></rect><rect x="387.62" y="92.86" width="43.93" height="76.52" style="fill: rgb(245, 245, 245); transform-origin: 409.585px 131.12px; user-select: auto;" id="elpyz64drxmac" class="animable"></rect><path d="M30.17,209.73A3.93,3.93,0,0,1,25.36,207L16.53,174a3.26,3.26,0,0,1,2.42-3.9l3.1-.83a3.37,3.37,0,0,0,2.47-2.55l.3-1.53a3.38,3.38,0,0,1,2.47-2.55L42,158.71a3.42,3.42,0,0,1,3.19.75l1,.95a3.42,3.42,0,0,0,3.19.74l18.74-5a3.25,3.25,0,0,1,4,2.17l9,33.68a3.92,3.92,0,0,1-2.77,4.8Z" style="fill: rgb(224, 224, 224); transform-origin: 48.8504px 182.946px; user-select: auto;" id="elvkmiofyplki" class="animable"></path><path d="M47.55,161.64l-11.93,3.18L34,163.11A4.25,4.25,0,0,0,29.81,162l-11.65,3.13a3.77,3.77,0,0,0-2.81,4.52l.36,1.36,9.6,35.76a4.28,4.28,0,0,0,5.34,2.85L78,196.9a4.27,4.27,0,0,0,3.19-5.14L72.11,158a2.82,2.82,0,0,0-3.46-2Z" style="fill: rgb(235, 235, 235); transform-origin: 48.2785px 182.854px; user-select: auto;" id="elq2dwn433bul" class="animable"></path><path d="M190.05,157.37a4.75,4.75,0,0,1-3.5-5.73l9.68-40.07a3.93,3.93,0,0,1,4.83-2.74l3.77.91a4.08,4.08,0,0,0,4.1-1.29l1.21-1.44a4.08,4.08,0,0,1,4.09-1.28l17.89,4.32a4.11,4.11,0,0,1,3,2.63l.54,1.61a4.13,4.13,0,0,0,3,2.63l22.8,5.51a3.93,3.93,0,0,1,3.05,4.64l-9.9,41a4.74,4.74,0,0,1-5.72,3.5Z" style="fill: rgb(224, 224, 224); transform-origin: 225.504px 138.653px; user-select: auto;" id="elbilynj9gqbp" class="animable"></path><path d="M236.33,116.38l-14.5-3.54-.71-2.74a5.15,5.15,0,0,0-3.82-3.63L203.12,103a4.56,4.56,0,0,0-5.6,3.18l-.4,1.65-10.51,43.52a5.18,5.18,0,0,0,4,6.12l57.6,13.91a5.18,5.18,0,0,0,6.36-3.61l9.93-41.11a3.41,3.41,0,0,0-2.52-4.12Z" style="fill: rgb(235, 235, 235); transform-origin: 225.549px 137.201px; user-select: auto;" id="elb4v1vsj0hbt" class="animable"></path><path d="M78.37,104.5a5.33,5.33,0,0,1-5.88-4.71l-5-46a4.41,4.41,0,0,1,4.06-4.74l4.32-.48a4.56,4.56,0,0,0,3.84-2.91l.72-2a4.59,4.59,0,0,1,3.84-2.91l20.54-2.26a4.6,4.6,0,0,1,4.12,1.65l1.19,1.49a4.63,4.63,0,0,0,4.12,1.66l26.18-2.88a4.41,4.41,0,0,1,5,3.74l5.17,47.05a5.32,5.32,0,0,1-4.71,5.88Z" style="fill: rgb(224, 224, 224); transform-origin: 109.05px 71.4937px; user-select: auto;" id="elj8r7qkwatqf" class="animable"></path><path d="M111.61,43.58,95,45.37l-1.79-2.61a5.78,5.78,0,0,0-5.42-2.39L71.47,42.16a5.12,5.12,0,0,0-4.71,5.49l.21,1.9,5.49,50A5.81,5.81,0,0,0,79,104.43l66.12-7.27a5.81,5.81,0,0,0,5.35-6.24l-5.19-47.19a3.83,3.83,0,0,0-4.23-3.39Z" style="fill: rgb(245, 245, 245); transform-origin: 108.616px 72.4007px; user-select: auto;" id="el8sh2le62rvc" class="animable"></path><path d="M114.55,73.15a6.46,6.46,0,0,0,3.17-6.36,6.07,6.07,0,1,0-12,1.27,6.45,6.45,0,0,0,4.49,5.57c-9.1,2.41-7.58,12.43-7.58,12.43l21.91-2.3S123.88,73.53,114.55,73.15Z" style="fill: rgb(224, 224, 224); transform-origin: 113.537px 73.3771px; user-select: auto;" id="elhh5nex4y3vp" class="animable"></path><path d="M35,97.44a11.51,11.51,0,0,1,2.88-.87l.88-2.65,4.6.46.34,2.77a11.15,11.15,0,0,1,2.65,1.43l2.5-1.25,2.92,3.57-1.71,2.2a11.51,11.51,0,0,1,.87,2.88l2.64.89-.46,4.59-2.77.35a11.31,11.31,0,0,1-1.42,2.65L50.17,117l-3.57,2.93-2.2-1.72a11.45,11.45,0,0,1-2.89.87l-.88,2.65L36,121.22l-.35-2.77A11.69,11.69,0,0,1,33,117l-2.5,1.24-2.92-3.57,1.72-2.2a11.11,11.11,0,0,1-.87-2.88l-2.65-.89.46-4.59,2.77-.34a11.18,11.18,0,0,1,1.42-2.66l-1.24-2.49,3.57-2.93L35,97.44Zm1.72,6.39a5,5,0,1,0,7,.7A5,5,0,0,0,36.72,103.83Z" style="fill: rgb(224, 224, 224); transform-origin: 39.675px 107.825px; user-select: auto;" id="elyyud8dyu469" class="animable"></path><path d="M58.29,284.27a3.38,3.38,0,0,0,1.2-.2,2.45,2.45,0,0,0,1.12-.91,2.31,2.31,0,0,0,.35-.85c.06-.33.09-.7.14-1.08.39-3.1.94-7.53,1.63-13l.55-4.3c.09-.75.19-1.51.29-2.29l.15-1.17a5.91,5.91,0,0,0,.09-1.15,2.28,2.28,0,0,0-1.22-1.79,3,3,0,0,0-1.15-.29l-1.28-.17-5.29-.68L31.3,253.32A2.25,2.25,0,0,0,29,254.58a2.59,2.59,0,0,0-.2.67l-.1.77c-.07.51-.13,1-.2,1.53q-.4,3.06-.79,6c-.53,3.94-1,7.74-1.51,11.37-.12.9-.24,1.79-.35,2.67a2.24,2.24,0,0,0,1,2,2.28,2.28,0,0,0,1.11.39l1.25.17,2.46.33,9,1.21,13,1.79,3.52.51.91.15a1,1,0,0,1,.31.07l-.31,0-.92-.09-3.54-.42-13-1.62-9-1.15-2.46-.32-1.25-.16a2.73,2.73,0,0,1-2.49-2.93c.11-.89.22-1.79.34-2.7.47-3.62,1-7.42,1.48-11.36.26-2,.52-4,.79-6,.06-.51.13-1,.2-1.53l.1-.77a3,3,0,0,1,.24-.82,2.76,2.76,0,0,1,2.85-1.55l23.56,3.11,5.29.71,1.28.17a3.64,3.64,0,0,1,1.29.34,2.72,2.72,0,0,1,1.45,2.14,5.46,5.46,0,0,1-.1,1.25c0,.4-.1.79-.16,1.18-.1.78-.2,1.54-.31,2.29-.2,1.49-.39,2.92-.58,4.29-.75,5.45-1.36,9.87-1.79,13-.06.38-.09.73-.16,1.08a2.57,2.57,0,0,1-.4.9,2.53,2.53,0,0,1-1.21.93,2.17,2.17,0,0,1-.92.14A1.64,1.64,0,0,1,58.29,284.27Z" style="fill: rgb(224, 224, 224); transform-origin: 44.8727px 268.546px; user-select: auto;" id="elusg4iu9ca7" class="animable"></path><path d="M59,280.26a2.18,2.18,0,0,1-.3-.38l-.77-1.15c-.69-1.08-1.62-2.52-2.75-4.26l-1.88-3-.51-.8a.74.74,0,0,0-.66-.32c-.27,0-.45.18-.73.42l-.8.69-1.65,1.41a3.66,3.66,0,0,1-.49.37,1.17,1.17,0,0,1-.69.13,1.12,1.12,0,0,1-.65-.28,1.18,1.18,0,0,1-.24-.26l-.16-.24c-.85-1.29-1.72-2.63-2.62-4l-1.33-2-.65-1a.72.72,0,0,0-.74-.34.66.66,0,0,0-.37.19l-.4.4-.8.79-1.55,1.53-5.36,5.28L29.24,277l-1,.94a2,2,0,0,1-.38.3,2,2,0,0,1,.3-.38l1-1,3.53-3.64c1.52-1.54,3.31-3.35,5.28-5.36l1.54-1.54.79-.8.41-.4a1.17,1.17,0,0,1,.63-.33,1.23,1.23,0,0,1,1.26.56l.65,1,1.33,2,2.62,4a.82.82,0,0,0,1.48.18l1.66-1.4.81-.67a4.1,4.1,0,0,1,.42-.34,1.15,1.15,0,0,1,.59-.19,1.17,1.17,0,0,1,1,.53c.18.28.35.55.51.82l1.83,3,2.61,4.35.69,1.2C58.93,280.1,59,280.25,59,280.26Z" style="fill: rgb(224, 224, 224); transform-origin: 43.43px 272.515px; user-select: auto;" id="el7ztxco18ui" class="animable"></path><path d="M52,263.73s0-.27-.1-.72a3,3,0,0,0-.89-1.64,2.8,2.8,0,0,0-2.54-.68,2.73,2.73,0,0,0-.67,5.07,2.79,2.79,0,0,0,2.64,0,2.93,2.93,0,0,0,1.28-1.35c.19-.42.23-.68.28-.67a1.37,1.37,0,0,1-.1.74,2.91,2.91,0,0,1-1.28,1.6,3.14,3.14,0,0,1-3,.12,3.19,3.19,0,0,1,.79-6,3.12,3.12,0,0,1,2.9.89A2.93,2.93,0,0,1,52.1,263,1.35,1.35,0,0,1,52,263.73Z" style="fill: rgb(224, 224, 224); transform-origin: 48.9698px 263.328px; user-select: auto;" id="elcm9nd2h13hc" class="animable"></path><path d="M214,86.54a3.23,3.23,0,0,0,1.18.32,2.48,2.48,0,0,0,1.39-.38,2.22,2.22,0,0,0,.67-.63c.19-.27.37-.6.57-.92l6.81-11.18,2.26-3.7c.4-.64.8-1.3,1.21-2l.62-1a5.32,5.32,0,0,0,.55-1,2.28,2.28,0,0,0-.38-2.14,3.14,3.14,0,0,0-.93-.73l-1.1-.67-4.54-2.8L202.05,47.25A2.22,2.22,0,0,0,199,48l-.41.66L197.76,50c-1.08,1.74-2.15,3.46-3.19,5.15-2.1,3.38-4.12,6.64-6,9.75l-1.41,2.29a2.28,2.28,0,0,0,.89,3.09l1.08.67,2.1,1.3L198.86,77l11.1,7,3,1.91.77.5.25.19-.28-.14-.8-.46-3.05-1.83L198.67,77.3,191,72.58l-2.12-1.29-1.08-.67a2.81,2.81,0,0,1-1-1,2.69,2.69,0,0,1-.07-2.74c.46-.77.93-1.54,1.41-2.32l6-9.76,3.19-5.17.81-1.31.4-.66a3.16,3.16,0,0,1,.56-.65,2.78,2.78,0,0,1,3.24-.25l20.21,12.5,4.53,2.82,1.1.68a3.3,3.3,0,0,1,1,.84,2.69,2.69,0,0,1,.44,2.54,5,5,0,0,1-.6,1.1l-.63,1c-.41.67-.82,1.32-1.22,2-.79,1.28-1.56,2.51-2.29,3.68L218,85c-.22.33-.39.64-.6.93a2.38,2.38,0,0,1-.74.65,2.5,2.5,0,0,1-1.48.35,2.27,2.27,0,0,1-.9-.25A1.34,1.34,0,0,1,214,86.54Z" style="fill: rgb(224, 224, 224); transform-origin: 208.076px 66.6457px; user-select: auto;" id="el1aazrmhaize" class="animable"></path><path d="M211.26,65.26l1.85,3.7a1,1,0,0,1-1,1.51l-4.21-.13-4.09-.12A1.05,1.05,0,0,1,203,68.6l2.31-3.53,2.33-3.56a1,1,0,0,1,1.81.11Z" style="fill: rgb(224, 224, 224); transform-origin: 208.043px 65.7334px; user-select: auto;" id="el2heaxbic0pr" class="animable"></path></g><g id="freepik--Floor--inject-30" class="animable" style="transform-origin: 250px 477.64px; user-select: auto;"><path d="M466,477.64c0,.15-96.7.26-216,.26s-216-.11-216-.26,96.68-.26,216-.26S466,477.5,466,477.64Z" style="fill: rgb(38, 50, 56); transform-origin: 250px 477.64px; user-select: auto;" id="el2xyhhov5np6" class="animable"></path></g><g id="freepik--Plant--inject-30" class="animable" style="transform-origin: 404.195px 385.025px; user-select: auto;"><path d="M441.28,297c-9.4,4.87-16.61,13.26-21.79,22.49s-8.53,19.36-11.84,29.42l-2.89,51.87c10.94-18.61,19.72-40.49,22.09-61.95l-7.28-.64c4.88-.75,9-4.29,11.58-8.48s4-9,5.26-13.79l-8.88,1.32A32.91,32.91,0,0,0,441.28,297Z" style="fill: rgb(69, 90, 100); transform-origin: 423.02px 348.89px; user-select: auto;" id="el2rooxjfc2ob" class="animable"></path><g id="elkg36vn7xw4" style="user-select: auto;"><g style="opacity: 0.3; transform-origin: 423.02px 348.89px; user-select: auto;" class="animable"><path d="M441.28,297c-9.4,4.87-16.61,13.26-21.79,22.49s-8.53,19.36-11.84,29.42l-2.89,51.87c10.94-18.61,19.72-40.49,22.09-61.95l-7.28-.64c4.88-.75,9-4.29,11.58-8.48s4-9,5.26-13.79l-8.88,1.32A32.91,32.91,0,0,0,441.28,297Z" id="elgayx6g7yzek" class="animable" style="transform-origin: 423.02px 348.89px; user-select: auto;"></path></g></g><path d="M403.14,412.89s-23.74-28.42-23.47-55.55h9.59s-10.42-6.85-9.59-10.69,1.1-18.36,1.1-18.36l8.76,2.2s-6.57-3.29-7.39-8.5,1.91-29.32,1.91-29.32,10.69,11.24,14,22.74,11.92,24.94,9.38,60S403.14,412.89,403.14,412.89Z" style="fill: rgb(69, 90, 100); transform-origin: 393.757px 352.78px; user-select: auto;" id="elz7nuliotdd" class="animable"></path><path d="M415.18,415.57s25.72-17.14,31.43-39l-7.71-2.09s9.88-3.23,10.05-6.5,3.14-15,3.14-15l-7.53-.15s6-1.21,7.8-5.22,4.88-24,4.88-24-11.05,6.7-16.21,15.23S426,356.28,420.35,385,415.18,415.57,415.18,415.57Z" style="fill: rgb(69, 90, 100); transform-origin: 436.205px 369.59px; user-select: auto;" id="elbxm95oqd6ol" class="animable"></path><path d="M390.54,317.45a1.32,1.32,0,0,1,.09.29l.21.88c.18.8.44,1.93.76,3.37s.72,3.26,1.13,5.35.92,4.46,1.41,7.1c1,5.27,2.09,11.57,3.2,18.58s2.14,14.74,3.09,22.87,1.65,15.91,2.21,23,.91,13.46,1.12,18.82c.13,2.68.19,5.11.26,7.24s.1,4,.11,5.47,0,2.62,0,3.45v.9c0,.2,0,.31,0,.31a1.61,1.61,0,0,1,0-.31c0-.23,0-.53,0-.9,0-.82-.08-2-.13-3.45s-.11-3.33-.21-5.46-.17-4.55-.33-7.23c-.25-5.36-.68-11.73-1.23-18.8s-1.32-14.83-2.25-23-2-15.85-3.05-22.86-2.11-13.31-3.09-18.58c-.46-2.64-.93-5-1.32-7.12s-.75-3.89-1.05-5.36-.5-2.58-.66-3.39c-.07-.37-.12-.66-.16-.89A1,1,0,0,1,390.54,317.45Z" style="fill: rgb(38, 50, 56); transform-origin: 397.337px 376.265px; user-select: auto;" id="el44c7kljpyjf" class="animable"></path><path d="M399.85,430.29s-21.73-24.65-28.48-39.56l5.09-2.17c-3.69.61-7.47-1-10.33-3.39s-5-5.58-7-8.7l6.71-1.13A25,25,0,0,1,351.15,364c7.92,1.3,15.08,5.65,21,11.09a104.61,104.61,0,0,1,12.72,14.73,50.57,50.57,0,0,1,4.94,8.12C393.44,405.47,399.86,421.24,399.85,430.29Z" style="fill: rgb(69, 90, 100); transform-origin: 375.5px 397.145px; user-select: auto;" id="elovdfdxea5b" class="animable"></path><path d="M447,338a.84.84,0,0,1-.09.25l-.33.72-1.32,2.74c-1.16,2.37-2.81,5.81-4.8,10.09-4,8.54-9.25,20.47-14.45,33.89s-9.31,25.79-12.11,34.8c-1.4,4.5-2.5,8.16-3.23,10.69l-.87,2.91-.24.75a1.4,1.4,0,0,1-.1.26,1,1,0,0,1,0-.27c.05-.2.11-.46.19-.77.19-.71.44-1.69.77-2.94.68-2.55,1.72-6.22,3.08-10.74,2.71-9,6.79-21.44,12-34.88s10.52-25.35,14.6-33.86c2-4.26,3.73-7.68,4.95-10,.6-1.14,1.06-2,1.4-2.7.16-.28.28-.51.38-.69S447,338,447,338Z" style="fill: rgb(38, 50, 56); transform-origin: 428.225px 386.55px; user-select: auto;" id="elil5hya0khv" class="animable"></path><path d="M401.69,440.85a11,11,0,0,1-.33-1.76c-.17-1.13-.46-2.77-.86-4.79a96.68,96.68,0,0,0-11.29-29.89c-1-1.77-1.89-3.19-2.52-4.16a12.15,12.15,0,0,1-.91-1.54,12.13,12.13,0,0,1,1.08,1.43c.68.93,1.6,2.33,2.67,4.09a87.63,87.63,0,0,1,11.33,30c.36,2,.59,3.69.7,4.84A12.33,12.33,0,0,1,401.69,440.85Z" style="fill: rgb(38, 50, 56); transform-origin: 393.735px 419.78px; user-select: auto;" id="elcet2so6syer" class="animable"></path><rect x="382.8" y="435.06" width="47.55" height="9.7" style="fill: rgb(255, 114, 94); transform-origin: 406.575px 439.91px; user-select: auto;" id="elh8vohkrhqq" class="animable"></rect><polygon points="387.34 444.76 392.48 477.38 421.21 477.38 426.01 444.76 387.34 444.76" style="fill: rgb(255, 114, 94); transform-origin: 406.675px 461.07px; user-select: auto;" id="elj84u8ucha2r" class="animable"></polygon><path d="M427.44,444.76c0,.14-9,.26-20.09.26s-20.09-.12-20.09-.26,9-.26,20.09-.26S427.44,444.61,427.44,444.76Z" style="fill: rgb(38, 50, 56); transform-origin: 407.35px 444.76px; user-select: auto;" id="eljgc471rwqxm" class="animable"></path></g><g id="freepik--filing-cabinet--inject-30" class="animable" style="transform-origin: 160.36px 300.055px; user-select: auto;"><rect x="56.1" y="122.47" width="151.98" height="355.17" style="fill: rgb(69, 90, 100); transform-origin: 132.09px 300.055px; user-select: auto;" id="el9f2f9vo32zd" class="animable"></rect><g id="el317pugwlzdw" style="user-select: auto;"><g style="opacity: 0.3; transform-origin: 76.875px 300.055px; user-select: auto;" class="animable"><rect x="56.1" y="122.47" width="41.55" height="355.17" id="elsqlxo4xzwu7" class="animable" style="transform-origin: 76.875px 300.055px; user-select: auto;"></rect></g></g><path d="M139.55,137.47v-2.85l-1.38,2.32h-.67l-1.38-2.24v2.77h-1.4V132.1H136l1.89,3.1,1.83-3.1h1.25l0,5.37Z" style="fill: rgb(255, 255, 255); transform-origin: 137.845px 134.785px; user-select: auto;" id="eli7ieukbufs" class="animable"></path><path d="M144.89,135.54v1.93h-1.52v-1.95l-2-3.42h1.6l1.27,2.13,1.27-2.13h1.47Z" style="fill: rgb(255, 255, 255); transform-origin: 144.175px 134.785px; user-select: auto;" id="elwarw6xpf9f" class="animable"></path><path d="M151.07,133.28v1.18h2.37v1.17h-2.37v1.84h-1.52V132.1h4.21v1.18Z" style="fill: rgb(255, 255, 255); transform-origin: 151.655px 134.785px; user-select: auto;" id="el3xb2gagjy1q" class="animable"></path><path d="M154.47,132.1H156v5.37h-1.52Z" style="fill: rgb(255, 255, 255); transform-origin: 155.235px 134.785px; user-select: auto;" id="elrt23isq4cco" class="animable"></path><path d="M157.07,132.1h1.51v4.16h2.56v1.21h-4.07Z" style="fill: rgb(255, 255, 255); transform-origin: 159.105px 134.785px; user-select: auto;" id="el8nt0ycg9979" class="animable"></path><path d="M166,136.29v1.18h-4.3V132.1h4.2v1.18h-2.7v.9h2.38v1.13h-2.38v1Z" style="fill: rgb(255, 255, 255); transform-origin: 163.85px 134.785px; user-select: auto;" id="el039vs3q1xzd2" class="animable"></path><path d="M166.51,137l.5-1.11a3.4,3.4,0,0,0,1.77.52c.62,0,.87-.17.87-.43,0-.85-3.05-.23-3.05-2.22,0-1,.78-1.74,2.38-1.74a4.09,4.09,0,0,1,1.94.46l-.47,1.13a3.07,3.07,0,0,0-1.48-.41c-.64,0-.87.21-.87.48,0,.82,3,.21,3,2.18,0,.94-.78,1.73-2.37,1.73A4.15,4.15,0,0,1,166.51,137Z" style="fill: rgb(255, 255, 255); transform-origin: 168.805px 134.805px; user-select: auto;" id="elsgskk9xzu3i" class="animable"></path><path d="M202.62,217s0-.45,0-1.3,0-2.1,0-3.73c0-3.29,0-8.08,0-14.22,0-12.26-.07-29.84-.11-51.21l.21.21-99.14.05h0l.26-.26c0,25.22,0,49.16,0,70.46l-.23-.24,71.47.12,20.38.06,5.41,0h1.4l.49,0h-.46l-1.37,0-5.37,0-20.32.07-71.63.12h-.24V217c0-21.3,0-45.24,0-70.46v-.26h.27l99.14.05h.21v.21c-.05,21.42-.09,39-.11,51.35,0,6.11,0,10.89-.06,14.16,0,1.61,0,2.85,0,3.7S202.62,217,202.62,217Z" style="fill: rgb(38, 50, 56); transform-origin: 153.18px 181.705px; user-select: auto;" id="elderoslak4us" class="animable"></path><g id="eljrwctm982o" style="user-select: auto;"><g style="opacity: 0.3; transform-origin: 153.97px 193.305px; user-select: auto;" class="animable"><rect x="133.79" y="189.89" width="40.36" height="6.83" id="el9z98uot8ree" class="animable" style="transform-origin: 153.97px 193.305px; user-select: auto;"></rect></g></g><rect x="143.44" y="159.5" width="25.79" height="19.76" rx="2.49" style="fill: rgb(255, 255, 255); transform-origin: 156.335px 169.38px; user-select: auto;" id="elak3iwfswh9" class="animable"></rect><path d="M167.55,176.33a5.74,5.74,0,0,1-.93-1l-2.39-2.77-1.63-1.93-.44-.52a.47.47,0,0,0-.44-.15c-.16,0-.26.15-.44.36l-.51.56-1,1.17a1.15,1.15,0,0,1-.85.49,1,1,0,0,1-.53-.15.91.91,0,0,1-.21-.18l-.14-.16-2.25-2.6-1.13-1.32-.56-.65a.44.44,0,0,0-.49-.15.49.49,0,0,0-.21.14l-.25.33-.5.64q-.48.63-1,1.23L148.3,174,146,176.82a6.85,6.85,0,0,1-.9,1,6.11,6.11,0,0,1,.74-1.12l2.16-2.95,3.26-4.34.95-1.25c.16-.21.33-.42.49-.64l.25-.33a1.07,1.07,0,0,1,.46-.32,1,1,0,0,1,1,.3l.56.65c.37.43.75.88,1.14,1.32.77.89,1.51,1.77,2.24,2.61.3.43.65.42,1,0l1.06-1.15.51-.56a1.23,1.23,0,0,1,.71-.49.92.92,0,0,1,.86.3l.44.55,1.58,2,2.25,2.87A6.72,6.72,0,0,1,167.55,176.33Z" style="fill: rgb(38, 50, 56); transform-origin: 156.325px 172.328px; user-select: auto;" id="elgcow02i07gt" class="animable"></path><path d="M161,165.18s-.06-.19-.17-.49a2.08,2.08,0,0,0-.79-1.06,2,2,0,0,0-1.82-.23,1.92,1.92,0,1,0,1.82,3.34,2.16,2.16,0,0,0,.79-1.06c.11-.31.13-.5.17-.5s.08.2,0,.55a2.14,2.14,0,0,1-.76,1.3,2.33,2.33,0,0,1-2.22.39,2.37,2.37,0,0,1,0-4.47,2.3,2.3,0,0,1,2.22.39,2.12,2.12,0,0,1,.76,1.3C161.08,165,161,165.19,161,165.18Z" style="fill: rgb(38, 50, 56); transform-origin: 158.742px 165.183px; user-select: auto;" id="elwclwb6r8mma" class="animable"></path><g id="elugg2rk65jf" style="user-select: auto;"><g style="opacity: 0.4; transform-origin: 145.525px 255.915px; user-select: auto;" class="animable"><rect x="102.31" y="222.34" width="86.43" height="67.15" id="elb5szthr5yqk" class="animable" style="transform-origin: 145.525px 255.915px; user-select: auto;"></rect></g></g><path d="M153,224.89H136.53l-1-1.65a3.61,3.61,0,0,0-3.11-1.78H120.33a3.61,3.61,0,0,0-3.61,3.43h-4.31a3.38,3.38,0,0,0-3.38,3.38v8.38h47.3v-8.38A3.38,3.38,0,0,0,153,224.89Z" style="fill: rgb(224, 224, 224); transform-origin: 132.68px 229.055px; user-select: auto;" id="el6f9ped1yoj" class="animable"></path><path d="M161.62,224.89H145.2l-1-1.65a3.6,3.6,0,0,0-3.11-1.78H129a3.6,3.6,0,0,0-3.6,3.43h-4.32a3.38,3.38,0,0,0-3.37,3.38v8.38H165v-8.38A3.38,3.38,0,0,0,161.62,224.89Z" style="fill: rgb(235, 235, 235); transform-origin: 141.355px 229.055px; user-select: auto;" id="eloiixdf6hqhc" class="animable"></path><path d="M172.9,224.89H156.47l-1-1.65a3.63,3.63,0,0,0-3.12-1.78H140.27a3.6,3.6,0,0,0-3.6,3.43h-4.31a3.38,3.38,0,0,0-3.38,3.38v8.38h47.29v-8.38A3.38,3.38,0,0,0,172.9,224.89Z" style="fill: rgb(245, 245, 245); transform-origin: 152.625px 229.055px; user-select: auto;" id="elden6o0a9ig" class="animable"></path><path d="M134.79,268.58V228.31a3.48,3.48,0,0,1,3.63-3.32h3.47a3.66,3.66,0,0,0,3.29-1.94l.75-1.48a3.67,3.67,0,0,1,3.29-1.93h16.47a3.7,3.7,0,0,1,3.13,1.64l.81,1.25a3.71,3.71,0,0,0,3.12,1.64h21a3.48,3.48,0,0,1,3.63,3.32v41.09Z" style="fill: rgb(255, 114, 94); transform-origin: 166.085px 244.11px; user-select: auto;" id="el9c1ncis9gn" class="animable"></path><g id="el4bhohl4gkki" style="user-select: auto;"><g style="opacity: 0.3; transform-origin: 166.085px 244.11px; user-select: auto;" class="animable"><path d="M134.79,268.58V228.31a3.48,3.48,0,0,1,3.63-3.32h3.47a3.66,3.66,0,0,0,3.29-1.94l.75-1.48a3.67,3.67,0,0,1,3.29-1.93h16.47a3.7,3.7,0,0,1,3.13,1.64l.81,1.25a3.71,3.71,0,0,0,3.12,1.64h21a3.48,3.48,0,0,1,3.63,3.32v41.09Z" id="elf4t4em2casj" class="animable" style="transform-origin: 166.085px 244.11px; user-select: auto;"></path></g></g><path d="M147.94,235.78V204a4.74,4.74,0,0,1,4.75-4.75h50.65a4.75,4.75,0,0,1,4.75,4.75V234.9Z" style="fill: rgb(255, 255, 255); transform-origin: 178.015px 217.515px; user-select: auto;" id="elrplyz0xi99r" class="animable"></path><path d="M149.92,245.06V204.8a3.49,3.49,0,0,1,3.63-3.33H157a3.67,3.67,0,0,0,3.3-1.93l.74-1.48a3.68,3.68,0,0,1,3.3-1.94h16.47a3.71,3.71,0,0,1,3.12,1.64l.81,1.25a3.69,3.69,0,0,0,3.13,1.64h21a3.48,3.48,0,0,1,3.63,3.32v41.09Z" style="fill: rgb(255, 114, 94); transform-origin: 181.21px 220.59px; user-select: auto;" id="elsiuv9jhlc5r" class="animable"></path><path d="M149.92,245.06h.31l.89,0,3.43,0,12.87-.06,45.09-.12-.24.24c0-6.74,0-13.89,0-21.36,0-3.73,0-7.54,0-11.41V205a11.22,11.22,0,0,0,0-1.44,3.05,3.05,0,0,0-1.57-2.15,3.61,3.61,0,0,0-1.21-.41,9.8,9.8,0,0,0-1.34,0H188a4,4,0,0,1-1.36-.21,3.82,3.82,0,0,1-2.12-1.66l-.69-1.08a3.32,3.32,0,0,0-.8-.87,3.58,3.58,0,0,0-2.21-.71h-14.6c-.77,0-1.59,0-2.29,0a3.51,3.51,0,0,0-1.93.88c-1.06.91-1.17,2.75-2.55,3.66a4,4,0,0,1-2.16.75h-2.17a17.79,17.79,0,0,0-2.08,0,3.45,3.45,0,0,0-1.77.79,3.05,3.05,0,0,0-1,1.59,10.38,10.38,0,0,0-.09,1.95q0,3.94,0,7.58c0,9.67-.07,17.5-.1,22.94,0,2.7,0,4.81,0,6.27,0,.7,0,1.25,0,1.64s0,.57,0,.57,0-.18,0-.54,0-.91,0-1.6c0-1.45,0-3.54,0-6.22,0-5.45-.06-13.3-.1-23,0-2.43,0-5,0-7.63a10.35,10.35,0,0,1,.09-2.06A3.45,3.45,0,0,1,151,202.2a4,4,0,0,1,2-.89,19.5,19.5,0,0,1,2.15-.06h2.15a3.54,3.54,0,0,0,1.92-.67c1.22-.77,1.27-2.48,2.5-3.64a4,4,0,0,1,2.18-1c.82-.07,1.56,0,2.35,0h14.6a4,4,0,0,1,2.51.8,3.65,3.65,0,0,1,.92,1l.7,1.08a3.35,3.35,0,0,0,1.85,1.45,3.43,3.43,0,0,0,1.2.18h20.14a8.61,8.61,0,0,1,1.42.05,4.09,4.09,0,0,1,1.39.47,3.59,3.59,0,0,1,1.82,2.52,11.29,11.29,0,0,1,.05,1.52V223.7c0,7.47,0,14.62,0,21.36v.24h-.24l-45.24-.12-12.82-.06-3.38,0-.87,0Z" style="fill: rgb(38, 50, 56); transform-origin: 181.388px 220.604px; user-select: auto;" id="el3ogi19qq9xf" class="animable"></path><path d="M178.54,199.76a43.21,43.21,0,0,1-6.65.26,43.32,43.32,0,0,1-6.65-.26,41.85,41.85,0,0,1,6.65-.26A41.75,41.75,0,0,1,178.54,199.76Z" style="fill: rgb(255, 255, 255); transform-origin: 171.89px 199.758px; user-select: auto;" id="elu3p2virmp48" class="animable"></path><path d="M169.4,262V221.71c0-1.83,1.84-3.32,4.11-3.32h3.92a4.26,4.26,0,0,0,3.72-1.93L182,215a4.26,4.26,0,0,1,3.72-1.93h18.61a4.35,4.35,0,0,1,3.54,1.64l.91,1.25a4.38,4.38,0,0,0,3.53,1.64H236c2.27,0,4.1,1.49,4.1,3.32V262Z" style="fill: rgb(255, 114, 94); transform-origin: 204.75px 237.534px; user-select: auto;" id="el8107ftigg3o" class="animable"></path><path d="M169.4,262l.36,0h1l3.9,0,14.6-.07,50.87-.11-.24.24c0-6.82,0-14,0-21.39q0-5.55,0-11.3V223.5c0-.95,0-2,0-2.89a3,3,0,0,0-1.49-2.14,4.68,4.68,0,0,0-2.71-.64h-23a5.16,5.16,0,0,1-2.79-.63,3.84,3.84,0,0,1-1.13-.92c-.31-.39-.55-.74-.83-1.12a3.8,3.8,0,0,0-2-1.58,6.81,6.81,0,0,0-2.57-.28H185.44a4.42,4.42,0,0,0-2.17.69,3.39,3.39,0,0,0-.84.76,9.1,9.1,0,0,0-.6,1c-.2.35-.38.68-.6,1a3.64,3.64,0,0,1-.85.9,4.7,4.7,0,0,1-2.22.9c-1.59.1-3,0-4.54,0a4.14,4.14,0,0,0-3.59,1.7,3,3,0,0,0-.43,1.91v2.06c0,1.36,0,2.69,0,4,0,10.39-.08,18.79-.1,24.63,0,2.9,0,5.17-.05,6.72,0,.76,0,1.35,0,1.76s0,.62,0,.62,0-.19,0-.58,0-1,0-1.72c0-1.55,0-3.8-.05-6.69,0-5.85-.06-14.28-.1-24.69,0-1.31,0-2.65,0-4v-2.08a3.49,3.49,0,0,1,.48-2.13,4.57,4.57,0,0,1,3.93-1.9c1.46,0,3,0,4.48-.06a4.24,4.24,0,0,0,2-.82,5,5,0,0,0,1.33-1.81,10.84,10.84,0,0,1,.64-1,3.63,3.63,0,0,1,.94-.85,4.84,4.84,0,0,1,2.39-.78l10.08,0h7.88a7,7,0,0,1,2.74.31,4.28,4.28,0,0,1,2.2,1.75c.27.36.54.75.8,1.09a3.67,3.67,0,0,0,1,.8,4.74,4.74,0,0,0,2.55.56h23a5.22,5.22,0,0,1,3,.71,3.49,3.49,0,0,1,1.72,2.54c0,1,0,2,0,2.94v17.09c0,7.42,0,14.57,0,21.39v.24h-.24l-51-.12L174.56,262l-3.85,0-1,0Z" style="fill: rgb(38, 50, 56); transform-origin: 204.872px 237.537px; user-select: auto;" id="elmlau3583hpr" class="animable"></path><path d="M203.52,217.22a75.28,75.28,0,0,1-8.78.26,75.28,75.28,0,0,1-8.78-.26,72.72,72.72,0,0,1,8.78-.26A72.72,72.72,0,0,1,203.52,217.22Z" style="fill: rgb(255, 255, 255); transform-origin: 194.74px 217.218px; user-select: auto;" id="elov6oy8idopm" class="animable"></path><rect x="102.31" y="235.76" width="62.9" height="54.22" style="fill: rgb(69, 90, 100); transform-origin: 133.76px 262.87px; user-select: auto;" id="elakjfim7q3s" class="animable"></rect><g id="elg31gi9nyne" style="user-select: auto;"><g style="opacity: 0.3; transform-origin: 133.76px 262.87px; user-select: auto;" class="animable"><rect x="102.31" y="235.76" width="62.9" height="54.22" id="elrfx3gr5u8kr" class="animable" style="transform-origin: 133.76px 262.87px; user-select: auto;"></rect></g></g><rect x="165.21" y="221.46" width="99.15" height="70.46" style="fill: rgb(69, 90, 100); transform-origin: 214.785px 256.69px; user-select: auto;" id="elbcy6ckd36g4" class="animable"></rect><path d="M264.36,291.91s0-.44,0-1.29,0-2.11,0-3.74c0-3.28,0-8.08-.05-14.21,0-12.26-.07-29.85-.11-51.21l.21.21-99.14.05h0l.26-.26c0,25.22,0,49.15,0,70.45l-.24-.23,71.47.11,20.38.07,5.41,0h1.89l-.46,0h-1.37l-5.37,0-20.32.06-71.63.12H165v-.24c0-21.3,0-45.23,0-70.45v-.26h.27l99.14,0h.21v.22c-.05,21.42-.09,39-.11,51.34,0,6.11,0,10.89-.06,14.16,0,1.62,0,2.85,0,3.7S264.36,291.91,264.36,291.91Z" style="fill: rgb(38, 50, 56); transform-origin: 214.81px 256.565px; user-select: auto;" id="elutby75pau9a" class="animable"></path><g id="el69behdia16o" style="user-select: auto;"><g style="opacity: 0.3; transform-origin: 220.14px 271.285px; user-select: auto;" class="animable"><rect x="197.14" y="267.87" width="46" height="6.83" id="elkqnzi2q6zwk" class="animable" style="transform-origin: 220.14px 271.285px; user-select: auto;"></rect></g></g><rect x="205.74" y="241.44" width="25.79" height="19.76" rx="2.49" style="fill: rgb(255, 255, 255); transform-origin: 218.635px 251.32px; user-select: auto;" id="el6hiqggra5kj" class="animable"></rect><path d="M211.21,247.29h5.27v1.77h-.25a1.59,1.59,0,0,0-.71-1.28,2.21,2.21,0,0,0-1-.2v4.61a.9.9,0,0,0,.16.64,1.08,1.08,0,0,0,.71.16v.23H212.3V253a1,1,0,0,0,.68-.16.91.91,0,0,0,.17-.64v-4.61a2.3,2.3,0,0,0-1,.2,1.49,1.49,0,0,0-.71,1.28h-.25Z" style="fill: rgb(38, 50, 56); transform-origin: 213.835px 250.255px; user-select: auto;" id="el3nqqi3jyl3x" class="animable"></path><path d="M226.29,247.76a33,33,0,0,1-8.27,0,33,33,0,0,1,8.27,0Z" style="fill: rgb(38, 50, 56); transform-origin: 222.155px 247.76px; user-select: auto;" id="elncpnlvp1q6" class="animable"></path><path d="M226.46,251.46a33.09,33.09,0,0,1-8.28,0,33.09,33.09,0,0,1,8.28,0Z" style="fill: rgb(38, 50, 56); transform-origin: 222.32px 251.46px; user-select: auto;" id="el56wawurv02s" class="animable"></path><path d="M227.56,255.16a58.09,58.09,0,0,1-7.71.26,58.09,58.09,0,0,1-7.71-.26,56.12,56.12,0,0,1,7.71-.26A56.12,56.12,0,0,1,227.56,255.16Z" style="fill: rgb(38, 50, 56); transform-origin: 219.85px 255.158px; user-select: auto;" id="el0hbo8327ly06" class="animable"></path><path d="M202.62,370.39s0-.45,0-1.3,0-2.11,0-3.74c0-3.28,0-8.08,0-14.21,0-12.26-.07-29.85-.11-51.21l.21.21-99.14.05h0l.26-.26c0,25.22,0,49.16,0,70.46l-.23-.24,71.47.12,20.38.06,5.41,0h1.4l.49,0h-1.83l-5.37,0-20.32.06-71.63.12h-.24v-.23c0-21.3,0-45.24,0-70.46v-.26h.27l99.14.05h.21v.21c-.05,21.42-.09,39.05-.11,51.34,0,6.12,0,10.9-.06,14.17,0,1.61,0,2.85,0,3.7S202.62,370.39,202.62,370.39Z" style="fill: rgb(38, 50, 56); transform-origin: 153.18px 335.035px; user-select: auto;" id="elp4ttbv7u2ye" class="animable"></path><g id="elegn47e5d0z9" style="user-select: auto;"><g style="opacity: 0.3; transform-origin: 154.76px 346.655px; user-select: auto;" class="animable"><rect x="133.79" y="343.24" width="41.94" height="6.83" id="el99ikfchbsd" class="animable" style="transform-origin: 154.76px 346.655px; user-select: auto;"></rect></g></g><rect x="142.59" y="316.69" width="25.79" height="19.76" rx="2.49" style="fill: rgb(255, 255, 255); transform-origin: 155.485px 326.57px; user-select: auto;" id="el2e0os342dhg" class="animable"></rect><path d="M153.69,329.52a1.52,1.52,0,1,1-.65-2A1.51,1.51,0,0,1,153.69,329.52Z" style="fill: rgb(38, 50, 56); transform-origin: 152.323px 328.859px; user-select: auto;" id="elzbr4ovy1ft" class="animable"></path><path d="M153.73,329a8.52,8.52,0,0,1-.51-3.52,14.06,14.06,0,0,1,.18-3.54,10.53,10.53,0,0,1,.35,3.53A20.31,20.31,0,0,1,153.73,329Z" style="fill: rgb(38, 50, 56); transform-origin: 153.499px 325.47px; user-select: auto;" id="elublb234ljam" class="animable"></path><path d="M158.25,322.8a4.22,4.22,0,0,1-4.44-.11c-.41-.31-.52-.63-.46-.66s.26.16.67.35a4.68,4.68,0,0,0,1.67.44C157.07,323,158.2,322.64,158.25,322.8Z" style="fill: rgb(38, 50, 56); transform-origin: 155.792px 322.702px; user-select: auto;" id="el5n7l1iwoiqm" class="animable"></path><path d="M158.54,330.41a1.52,1.52,0,1,1-.65-2.05A1.51,1.51,0,0,1,158.54,330.41Z" style="fill: rgb(38, 50, 56); transform-origin: 157.193px 329.71px; user-select: auto;" id="elgl9s5nk9m7k" class="animable"></path><path d="M158.58,329.86a8.63,8.63,0,0,1-.5-3.52,14.37,14.37,0,0,1,.17-3.54,10.53,10.53,0,0,1,.35,3.53A20.31,20.31,0,0,1,158.58,329.86Z" style="fill: rgb(38, 50, 56); transform-origin: 158.353px 326.33px; user-select: auto;" id="elocz8w5vn0t" class="animable"></path><path d="M158.31,323.84a3.11,3.11,0,0,1-2.42.66,3,3,0,0,1-2.32-.92c.07-.13,1.06.33,2.35.39S158.25,323.69,158.31,323.84Z" style="fill: rgb(38, 50, 56); transform-origin: 155.94px 324.046px; user-select: auto;" id="elrcgpfu6qk8m" class="animable"></path><path d="M202.62,447.07s0-.45,0-1.3,0-2.1,0-3.73c0-3.28,0-8.08,0-14.22,0-12.26-.07-29.84-.11-51.21l.21.21-99.14.05h0l.26-.26c0,25.22,0,49.16,0,70.46l-.23-.24,71.47.12,20.38.06,5.41,0,1.4,0h0l-1.37,0-5.37,0-20.32.06-71.63.12h-.24v-.24c0-21.3,0-45.24,0-70.46v-.26h.27l99.14,0h.21v.21c-.05,21.42-.09,39.05-.11,51.35,0,6.11,0,10.89-.06,14.16,0,1.61,0,2.85,0,3.7S202.62,447.07,202.62,447.07Z" style="fill: rgb(38, 50, 56); transform-origin: 153.15px 411.71px; user-select: auto;" id="elr3qtm0t0xef" class="animable"></path><g id="el58yo1ke2fr6" style="user-select: auto;"><g style="opacity: 0.3; transform-origin: 154.76px 423.335px; user-select: auto;" class="animable"><rect x="133.79" y="419.92" width="41.94" height="6.83" id="el3448h4x7jw5" class="animable" style="transform-origin: 154.76px 423.335px; user-select: auto;"></rect></g></g><rect x="142.59" y="393.12" width="25.79" height="19.76" rx="2.49" style="fill: rgb(255, 255, 255); transform-origin: 155.485px 403px; user-select: auto;" id="el2fpynfz6ys8" class="animable"></rect><path d="M156.87,400.83l2,1.18a.59.59,0,0,1,0,1l-2,1.26-2,1.22a.59.59,0,0,1-.9-.51v-4.82a.59.59,0,0,1,.89-.51Z" style="fill: rgb(38, 50, 56); transform-origin: 156.558px 402.573px; user-select: auto;" id="elprfp73u19h" class="animable"></path></g><g id="freepik--speech-bubble--inject-30" class="animable animator-active" style="transform-origin: 372.909px 88.2302px; user-select: auto;"><path d="M348.22,111.12a3.32,3.32,0,1,1-3.32-3.32A3.32,3.32,0,0,1,348.22,111.12Z" style="fill: rgb(255, 255, 255); transform-origin: 344.9px 111.12px; user-select: auto;" id="elwfdsnbr388j" class="animable"></path><path d="M348.22,111.12s-.05-.29-.2-.78a3.35,3.35,0,0,0-1.22-1.71,3.15,3.15,0,0,0-2.95-.4,3.09,3.09,0,0,0,0,5.79,3.15,3.15,0,0,0,2.95-.4,3.35,3.35,0,0,0,1.22-1.71c.15-.49.16-.79.2-.79a1.54,1.54,0,0,1,0,.84,3.3,3.3,0,0,1-1.2,2,3.47,3.47,0,0,1-3.33.56,3.55,3.55,0,0,1,0-6.69,3.44,3.44,0,0,1,3.33.56,3.3,3.3,0,0,1,1.2,2C348.31,110.83,348.25,111.13,348.22,111.12Z" style="fill: rgb(38, 50, 56); transform-origin: 344.804px 111.173px; user-select: auto;" id="eldunaq6h2qu" class="animable"></path><circle cx="377.01" cy="88.22" r="27.47" style="fill: rgb(255, 255, 255); transform-origin: 377.01px 88.22px; user-select: auto;" id="el5qa19ak8tu" class="animable"></circle><path d="M404.49,88.22a2.19,2.19,0,0,1-.05-.44l-.1-1.31q0-.43-.06-1c0-.35-.11-.73-.17-1.14a20.68,20.68,0,0,0-.58-2.83,26.46,26.46,0,0,0-3-7.27,27.28,27.28,0,0,0-32.75-11.63,29.22,29.22,0,0,0-3.55,1.56c-.57.32-1.12.68-1.69,1a13.78,13.78,0,0,0-1.65,1.13A30.39,30.39,0,0,0,357.76,69a30,30,0,0,0-2.67,3.15,26.46,26.46,0,0,0-3.89,7.5,27.05,27.05,0,0,0,0,17.18,26.21,26.21,0,0,0,3.89,7.5,30,30,0,0,0,2.67,3.15,30.39,30.39,0,0,0,3.08,2.63,13.78,13.78,0,0,0,1.65,1.13c.57.34,1.12.71,1.69,1a29.22,29.22,0,0,0,3.55,1.56A27.49,27.49,0,0,0,382,115a27.51,27.51,0,0,0,18.44-12.82,26.63,26.63,0,0,0,3-7.28,20.68,20.68,0,0,0,.58-2.83c.06-.41.14-.79.17-1.14s.05-.67.06-1l.1-1.3a2.23,2.23,0,0,1,.05-.45s0,.15,0,.45,0,.75,0,1.31c0,.29,0,.61,0,1s-.1.74-.15,1.16a19.19,19.19,0,0,1-.54,2.85,25.91,25.91,0,0,1-3,7.37,27.56,27.56,0,0,1-33.16,11.93,28.77,28.77,0,0,1-3.62-1.58c-.59-.32-1.15-.69-1.73-1a14.56,14.56,0,0,1-1.67-1.15,30.48,30.48,0,0,1-3.15-2.67,29.94,29.94,0,0,1-2.72-3.21,26.57,26.57,0,0,1-4-7.64,27.49,27.49,0,0,1,0-17.5,26.82,26.82,0,0,1,4-7.64,32.44,32.44,0,0,1,2.72-3.21A30.48,30.48,0,0,1,360.55,66a14.56,14.56,0,0,1,1.67-1.15c.58-.34,1.15-.71,1.73-1a30.3,30.3,0,0,1,3.62-1.58A27.75,27.75,0,0,1,382.12,61a27.66,27.66,0,0,1,18.61,13.1,25.91,25.91,0,0,1,3,7.37,19.07,19.07,0,0,1,.54,2.86c.05.41.12.8.15,1.15s0,.68,0,1c0,.55,0,1,0,1.31S404.49,88.22,404.49,88.22Z" style="fill: rgb(38, 50, 56); transform-origin: 376.86px 88.2302px; user-select: auto;" id="elrzjvof9r80f" class="animable"></path><path d="M375.53,93.91a8.32,8.32,0,1,1,8.32-8.32A8.32,8.32,0,0,1,375.53,93.91Zm0-15.63a7.32,7.32,0,1,0,7.32,7.31A7.32,7.32,0,0,0,375.53,78.28Z" style="fill: rgb(38, 50, 56); transform-origin: 375.53px 85.59px; user-select: auto;" id="elbi8b8pec1jj" class="animable"></path><g id="elbmnrbjhxi4t" style="user-select: auto;"><rect x="381.74" y="91.33" width="1" height="8.11" style="fill: rgb(38, 50, 56); transform-origin: 382.24px 95.385px; transform: rotate(-35.98deg); user-select: auto;" class="animable"></rect></g><path d="M371.57,82.52A4.79,4.79,0,0,0,373,89.65" style="fill: rgb(255, 255, 255); transform-origin: 371.776px 86.085px; user-select: auto;" id="elilwqxjdc8g9" class="animable"></path><path d="M373,89.65s-.49-.09-1.09-.59a4.64,4.64,0,0,1-1.15-5.57c.35-.7.73-1,.78-1s-.2.44-.44,1.12a5.16,5.16,0,0,0-.21,2.73,5.22,5.22,0,0,0,1.27,2.43C372.68,89.32,373.07,89.57,373,89.65Z" style="fill: rgb(38, 50, 56); transform-origin: 371.647px 86.07px; user-select: auto;" id="el0kpa18q57lc" class="animable"></path></g><g id="freepik--Character--inject-30" class="animable" style="transform-origin: 268.42px 280.51px; user-select: auto;"><path d="M347.05,178.72c-1.49-26.78-13.46-39.23-17-60.16-1.76-10.51-1.31-21.27-8.76-28.88-2.68-2.74-7.68-5.56-11.49-6-2.08-.26-5.32-.18-7.21.71-3.53-.52-5.11-.69-7.6,0-2.93.83-7,3.09-8.95,5.45-5.31,6.48-6.4,15.39-6.49,23.77a139.6,139.6,0,0,0,5.59,40.06,5.62,5.62,0,0,0,1.87,3.29c1.14.78,2.66.63,4,.41a79.89,79.89,0,0,0,15.12-3.94,5.07,5.07,0,0,0,1.92-1c1.35-1.38.78-3.66.16-5.49l13.57-11.61c-.9,8.08-3.5,15.87-4.65,23.91A67.68,67.68,0,0,0,319.33,188a43.75,43.75,0,0,1,16-.36c1.27.2,3.34,10.27,4.47,9.64C341.76,196.17,347.18,181,347.05,178.72Z" style="fill: rgb(38, 50, 56); transform-origin: 313.3px 140.429px; user-select: auto;" id="ela01ikao4aor" class="animable"></path><path d="M298.89,90.11l3.85-.43,14.7,5.92a4.11,4.11,0,0,1,3.88,4l-.13,47.91a13.42,13.42,0,0,1-2.59,8.65l-2.07,2.73c-4.71,6.21-14.39,5.7-18.12-1.15a5.34,5.34,0,0,1-.52-1.24,8.16,8.16,0,0,1-.22-1.07,34,34,0,0,1-.46-7.19c-.26-4.24-.35-6-.35-5.93s-9-1-11.44-12.6c-1.21-5.75-1.4-15.27-1.3-23.06C284.21,99.62,290.23,90.1,298.89,90.11Z" style="fill: rgb(255, 190, 157); transform-origin: 302.709px 126.456px; user-select: auto;" id="elxv8ixlyxlq" class="animable"></path><path d="M286.91,115.74a1.52,1.52,0,0,0,1.52,1.44,1.43,1.43,0,0,0,1.47-1.43,1.5,1.5,0,0,0-1.51-1.44A1.44,1.44,0,0,0,286.91,115.74Z" style="fill: rgb(38, 50, 56); transform-origin: 288.405px 115.745px; user-select: auto;" id="elpen65vjtta" class="animable"></path><path d="M301.87,114.8a1.49,1.49,0,0,0,1.52,1.44,1.43,1.43,0,0,0,1.47-1.42,1.49,1.49,0,0,0-1.51-1.44A1.43,1.43,0,0,0,301.87,114.8Z" style="fill: rgb(38, 50, 56); transform-origin: 303.365px 114.81px; user-select: auto;" id="elkx2a4xt76k" class="animable"></path><path d="M286.36,111.44c.19.19,1.28-.71,2.89-.78s2.83.66,3,.46-.12-.44-.65-.78a4.14,4.14,0,0,0-2.41-.62,4,4,0,0,0-2.29.87C286.41,111,286.26,111.36,286.36,111.44Z" style="fill: rgb(38, 50, 56); transform-origin: 289.315px 110.59px; user-select: auto;" id="el38f9f7ytsit" class="animable"></path><path d="M301.62,110.61c.2.18,1.26-.74,2.87-.87s2.84.59,3,.38-.13-.43-.68-.76a4,4,0,0,0-2.42-.55,4,4,0,0,0-2.27.94C301.66,110.17,301.52,110.53,301.62,110.61Z" style="fill: rgb(38, 50, 56); transform-origin: 304.562px 109.713px; user-select: auto;" id="elo1ldw896fz" class="animable"></path><path d="M297.06,123.15a11.14,11.14,0,0,0-2.64-.34c-.41,0-.8-.08-.88-.36a2,2,0,0,1,.21-1.23c.34-1,.69-2.07,1.06-3.19,1.46-4.53,2.5-8.25,2.31-8.31s-1.51,3.57-3,8.11l-1,3.2a2.36,2.36,0,0,0-.14,1.63,1,1,0,0,0,.71.56,2.58,2.58,0,0,0,.7.06A9.76,9.76,0,0,0,297.06,123.15Z" style="fill: rgb(38, 50, 56); transform-origin: 295.019px 116.519px; user-select: auto;" id="elz9f5049i37p" class="animable"></path><path d="M296.9,142.24a29.73,29.73,0,0,0,15.4-4.94s-3.52,8.26-15.24,7.75Z" style="fill: rgb(235, 153, 110); transform-origin: 304.6px 141.186px; user-select: auto;" id="elu26wdhfe29" class="animable"></path><path d="M297.93,127a2.9,2.9,0,0,1,2.55-1.21,2.62,2.62,0,0,1,1.87.89,1.66,1.66,0,0,1,.23,1.91,2,2,0,0,1-2.08.64,6,6,0,0,1-2.12-1.13,1.59,1.59,0,0,1-.48-.45.53.53,0,0,1,0-.6" style="fill: rgb(235, 153, 110); transform-origin: 300.294px 127.545px; user-select: auto;" id="elsqyt0n20bp9" class="animable"></path><path d="M301.85,124c-.26,0-.18,1.74-1.61,3.06s-3.3,1.21-3.3,1.46.43.32,1.22.3a4.37,4.37,0,0,0,2.76-1.12,3.79,3.79,0,0,0,1.23-2.56C302.18,124.44,302,124,301.85,124Z" style="fill: rgb(38, 50, 56); transform-origin: 299.547px 126.412px; user-select: auto;" id="el2wrfcd7o0ms" class="animable"></path><path d="M301.62,104.78c.24.39,1.58-.15,3.26-.33s3.13,0,3.25-.44c.05-.2-.27-.55-.91-.83a5,5,0,0,0-2.57-.35,4.87,4.87,0,0,0-2.39.93C301.73,104.18,301.51,104.59,301.62,104.78Z" style="fill: rgb(38, 50, 56); transform-origin: 304.864px 103.854px; user-select: auto;" id="elngr9pd2mqg" class="animable"></path><path d="M286,105.34c.3.36,1.39-.08,2.72-.16s2.47.12,2.72-.28c.1-.19-.1-.54-.61-.87a3.72,3.72,0,0,0-2.24-.48,3.76,3.76,0,0,0-2.14.84C286,104.79,285.88,105.17,286,105.34Z" style="fill: rgb(38, 50, 56); transform-origin: 288.711px 104.505px; user-select: auto;" id="el1afs85s8695" class="animable"></path><path d="M319,119.22c0-.86.86-3,1.71-3.14,2.27-.47,6.41-.49,6.74,5.32.45,7.94-7.62,6.75-7.65,6.53S319.18,122.22,319,119.22Z" style="fill: rgb(255, 190, 157); transform-origin: 323.234px 122.007px; user-select: auto;" id="elri618o3sds" class="animable"></path><path d="M322.1,124.78s.14.09.38.18a1.34,1.34,0,0,0,1,0c.82-.36,1.45-1.73,1.41-3.17a4.5,4.5,0,0,0-.5-2,1.62,1.62,0,0,0-1.1-1,.72.72,0,0,0-.8.43c-.09.23,0,.38-.07.4s-.18-.13-.14-.46a.9.9,0,0,1,.29-.51,1,1,0,0,1,.75-.25,2,2,0,0,1,1.52,1.15,4.7,4.7,0,0,1,.6,2.19c0,1.6-.69,3.15-1.82,3.54a1.46,1.46,0,0,1-1.28-.14C322.12,125,322.07,124.8,322.1,124.78Z" style="fill: rgb(235, 153, 110); transform-origin: 323.766px 121.882px; user-select: auto;" id="elwuq0uhsu2m" class="animable"></path><path d="M323.27,107.32c.56-3.17-.63-7.61-1.45-10.7a11.62,11.62,0,0,0-4.76-6.25,19.37,19.37,0,0,0-12-3.62l-1.59.52c-2.35-.19-4.86.31-6.15,2.21l0,0V87.35c-4.28.53-8,3.36-10.49,6.88s-3.86,7.68-5,11.84c5.25-4.7,10.94-9.89,15.32-15.43,4.59,6,11.39,9.86,17.59,14.35a23.12,23.12,0,0,1,1.37,9.12c0,7.8,1.65,14.85,2.26,22.64.35,4.49.32,8.33,4.91,7.94C323.87,130.31,320.8,121.45,323.27,107.32Z" style="fill: rgb(38, 50, 56); transform-origin: 302.622px 115.727px; user-select: auto;" id="elw20ct1mgpm" class="animable"></path><path d="M328.49,106.71a7.46,7.46,0,0,1-2.21.4,21.41,21.41,0,0,1-5.4-.21,25.5,25.5,0,0,1-5.19-1.5,8,8,0,0,1-2-1c.07-.17,3.18,1.28,7.28,2S328.47,106.53,328.49,106.71Z" style="fill: rgb(69, 90, 100); transform-origin: 321.09px 105.789px; user-select: auto;" id="elxe93ci2mk7" class="animable"></path><path d="M327.28,102.45a7,7,0,0,1-1.27-.08c-.82-.08-2-.25-3.43-.52a58.61,58.61,0,0,1-21.09-8.55c-1.21-.81-2.18-1.51-2.82-2a5.47,5.47,0,0,1-1-.83,6.41,6.41,0,0,1,1.08.67c.68.46,1.67,1.1,2.9,1.87a68.92,68.92,0,0,0,10.12,5.14,69.28,69.28,0,0,0,10.84,3.36c1.42.31,2.58.54,3.39.68A5.34,5.34,0,0,1,327.28,102.45Z" style="fill: rgb(69, 90, 100); transform-origin: 312.475px 96.4614px; user-select: auto;" id="elf2ws9mlz21w" class="animable"></path><path d="M284.07,103.37a7.75,7.75,0,0,1-1.83,2.13,7.87,7.87,0,0,1-2.19,1.77c-.1-.11.72-1.06,1.83-2.14A7.72,7.72,0,0,1,284.07,103.37Z" style="fill: rgb(69, 90, 100); transform-origin: 282.056px 105.32px; user-select: auto;" id="eltu27g7lp36" class="animable"></path><path d="M297,156.11c.89-1.55.22-7.89.22-7.89l-2.06,3.71c-4.35,1.69-10.33,4.1-12,5.28-2.51,1.76-5.91,9.18-5.91,9.18l-21,26.58L217,186.09l-3.69,19.71,13.26,2.75,23.32,3c6.55,1.41,12.92,1.93,18-2.37l.35-.68c-1.85,26.5.7,55.72,1.57,82.26a14.36,14.36,0,0,0,1.11,6.08c1.34,2.62,6.3,4,9.21,3.61s2-2.25,2.61-5.12c.34-1.57-1.13-3.75-1.32-5.34q-4.29-34.6-8.57-69.19c-.09-1.42-.19-2.74-.29-3.91-1-12.19-1.15-15.48-.61-21.06C272.79,187.22,291,166.58,297,156.11Z" style="fill: rgb(255, 114, 94); transform-origin: 255.386px 224.368px; user-select: auto;" id="ellorh3c84gwq" class="animable"></path><path d="M275,173.33a6.12,6.12,0,0,1-.6,1.2c-.42.74-1,1.84-1.65,3.22a54.37,54.37,0,0,0-5.41,23.09c0,1.53,0,2.77.05,3.62a5.77,5.77,0,0,1,0,1.34,7.65,7.65,0,0,1-.2-1.32,36,36,0,0,1-.22-3.64,49.33,49.33,0,0,1,1.29-12,49.82,49.82,0,0,1,4.16-11.29,35.56,35.56,0,0,1,1.81-3.17A6.76,6.76,0,0,1,275,173.33Z" style="fill: rgb(38, 50, 56); transform-origin: 270.982px 189.565px; user-select: auto;" id="elr1m3vc6gg1j" class="animable"></path><g id="elhe83zx3ky2t" style="user-select: auto;"><g style="opacity: 0.3; transform-origin: 268.253px 192.345px; user-select: auto;" class="animable"><path d="M272.26,177.92c-3.06,4.43-5.89,9.19-7.24,14.43s-.5,8.21-.62,13.71l3.15.71C266.85,196.91,267.18,190.4,272.26,177.92Z" id="elwmmsuz7y1dm" class="animable" style="transform-origin: 268.253px 192.345px; user-select: auto;"></path></g></g><path d="M271.11,192.35a2,2,0,0,1,0-.52c.06-.33.09-.84.24-1.47a42.21,42.21,0,0,1,1.61-5.23,153.61,153.61,0,0,1,7.46-16.4c.92-1.78,1.83-3.5,2.73-5.14l.07-.13h.15l3.31-.06-.22.34a3.31,3.31,0,0,0-1.29-1.45l-.23-.15.18-.2a75.82,75.82,0,0,1,7.1-7.46c.92-.84,1.67-1.48,2.19-1.91a5,5,0,0,1,.83-.63,5.11,5.11,0,0,1-.73.74l-2.1,2a90.46,90.46,0,0,0-6.93,7.54l-.06-.34a3.72,3.72,0,0,1,1.48,1.65l.16.33h-.37l-3.31.09.21-.13c-.88,1.63-1.79,3.35-2.71,5.13-3.21,6.25-5.92,12-7.58,16.29a49.25,49.25,0,0,0-1.75,5.15C271.28,191.65,271.16,192.35,271.11,192.35Z" style="fill: rgb(38, 50, 56); transform-origin: 283.166px 172.145px; user-select: auto;" id="elgno3qem2cds" class="animable"></path><path d="M311,430.42l12.89,20.75s-16.76,20.08-14.75,24.14l41.14-23.55L331.47,418.6Z" style="fill: rgb(255, 114, 94); transform-origin: 329.626px 446.955px; user-select: auto;" id="elquyknqtp8d8" class="animable"></path><path d="M335.55,442.11a1.93,1.93,0,0,1,2.26,1.25,1.86,1.86,0,0,1-1.22,2.25,2,2,0,0,1-2.38-1.34,1.92,1.92,0,0,1,1.53-2.2" style="fill: rgb(224, 224, 224); transform-origin: 336.029px 443.863px; user-select: auto;" id="el4r4zxuny0lh" class="animable"></path><g id="el351bqhovqek" style="user-select: auto;"><g style="opacity: 0.6; transform-origin: 329.503px 461.895px; user-select: auto;" class="animable"><path d="M350.24,451.76l-2-3.27L309.53,472.3s-1.38,1.84-.43,3Z" style="fill: rgb(255, 255, 255); transform-origin: 329.503px 461.895px; user-select: auto;" id="elo41pde74wdd" class="animable"></path></g></g><path d="M323.07,451.34c.12.2,1.18-.28,2.53-.2s2.37.62,2.51.43-.82-1.17-2.47-1.24S322.92,451.18,323.07,451.34Z" style="fill: rgb(38, 50, 56); transform-origin: 325.59px 450.968px; user-select: auto;" id="el8wig7cjgtqp" class="animable"></path><path d="M319.77,455.6c.07.22,1.13.06,2.3.52s1.88,1.25,2.08,1.12-.33-1.33-1.79-1.87S319.67,455.4,319.77,455.6Z" style="fill: rgb(38, 50, 56); transform-origin: 321.977px 456.199px; user-select: auto;" id="elthau6s0yqd" class="animable"></path><path d="M320.28,462.17c.21-.07-.09-1.23-1.23-2s-2.34-.71-2.33-.49.93.47,1.86,1.14S320.07,462.26,320.28,462.17Z" style="fill: rgb(38, 50, 56); transform-origin: 318.531px 460.856px; user-select: auto;" id="elwot4kw7w2u" class="animable"></path><path d="M320.65,446.29c.19.13,1-.67,2.13-1.24s2.27-.73,2.28-1-1.25-.46-2.63.23S320.46,446.19,320.65,446.29Z" style="fill: rgb(38, 50, 56); transform-origin: 322.838px 445.054px; user-select: auto;" id="elkn13fx9id2" class="animable"></path><path d="M312.75,438.94l1.39,24.4s-24.33,9.6-24.51,14.13l47.39-1-.6-38.1Z" style="fill: rgb(255, 114, 94); transform-origin: 313.325px 457.92px; user-select: auto;" id="eloroyrsgqyx" class="animable"></path><path d="M328.75,461a2,2,0,0,1,1.39,2.19,1.87,1.87,0,0,1-2.15,1.39,2.06,2.06,0,0,1-1.46-2.32,1.94,1.94,0,0,1,2.4-1.2" style="fill: rgb(224, 224, 224); transform-origin: 328.331px 462.792px; user-select: auto;" id="el5zzqj1r9qq3" class="animable"></path><g id="elbn7qc1mtggq" style="user-select: auto;"><g style="opacity: 0.6; transform-origin: 313.303px 475.04px; user-select: auto;" class="animable"><path d="M337,476.48l-.21-3.84L291.45,475s-2.09,1-1.82,2.44Z" style="fill: rgb(255, 255, 255); transform-origin: 313.303px 475.04px; user-select: auto;" id="elwg1twarvjv" class="animable"></path></g></g><path d="M313.37,463.11c0,.23,1.17.31,2.32,1s1.78,1.68,2,1.59-.16-1.43-1.57-2.28S313.31,462.9,313.37,463.11Z" style="fill: rgb(38, 50, 56); transform-origin: 315.558px 464.287px; user-select: auto;" id="elyc85oecr5wg" class="animable"></path><path d="M308.44,465.27c-.05.23,1,.6,1.77,1.56s1.05,2,1.28,2,.35-1.33-.67-2.5S308.44,465.05,308.44,465.27Z" style="fill: rgb(38, 50, 56); transform-origin: 310.043px 467.004px; user-select: auto;" id="eljv0l31bj5pm" class="animable"></path><path d="M305.74,471.28c.21.05.51-1.12-.11-2.37s-1.72-1.74-1.81-1.54.59.85,1.08,1.89S305.51,471.26,305.74,471.28Z" style="fill: rgb(38, 50, 56); transform-origin: 304.906px 469.304px; user-select: auto;" id="elmmtsmkl7hb" class="animable"></path><path d="M313.67,457.52c.1.21,1.15-.14,2.46-.07s2.34.45,2.46.25-.88-1-2.43-1.06S313.55,457.34,313.67,457.52Z" style="fill: rgb(38, 50, 56); transform-origin: 316.13px 457.197px; user-select: auto;" id="el9wa8ob3tvek" class="animable"></path><path d="M277.41,256.71s-2.18,103.81-.22,111,42.08,80.66,42.08,80.66l24.21-11.89-32.1-77.58,7.08-99.75Z" style="fill: rgb(38, 50, 56); transform-origin: 309.926px 352.54px; user-select: auto;" id="elvsg1vev95jm" class="animable"></path><path d="M330.5,250.91s13.92,22.73,11.46,36.36c-1,5.59-8.63,18-8.63,18V371.8l5.88,88.84H311L298.87,382.3s-4.25-7.19-5.88-13.39-6.94-79.56-6.94-79.56l-8.44-29.83Z" style="fill: rgb(38, 50, 56); transform-origin: 309.931px 355.775px; user-select: auto;" id="elxjt3qvclt7" class="animable"></path><path d="M336.44,413.72a12.19,12.19,0,0,0,0,1.87c0,1.2.12,2.94.24,5.09.24,4.29.67,10.21,1.17,16.75s.92,12.46,1.2,16.75c.13,2.07.25,3.78.33,5.08a12.43,12.43,0,0,0,.19,1.86,10.5,10.5,0,0,0,0-1.87c0-1.2-.06-2.94-.15-5.09-.17-4.3-.53-10.23-1-16.77s-1-12.36-1.33-16.74c-.18-2.07-.32-3.78-.44-5.08A11.57,11.57,0,0,0,336.44,413.72Z" style="fill: rgb(69, 90, 100); transform-origin: 338.008px 437.42px; user-select: auto;" id="elik0rs08g7o" class="animable"></path><path d="M327.49,262.53a3.89,3.89,0,0,1-.76.86,16.91,16.91,0,0,1-2.42,2,19.3,19.3,0,0,1-19.67,1.16,17,17,0,0,1-2.64-1.67,4.21,4.21,0,0,1-.85-.76c.06-.08,1.31,1,3.65,2.09A19.89,19.89,0,0,0,324.11,265C326.31,263.66,327.42,262.46,327.49,262.53Z" style="fill: rgb(69, 90, 100); transform-origin: 314.32px 265.615px; user-select: auto;" id="elbm1gwu3cuqm" class="animable"></path><path d="M286.29,283.42a1.61,1.61,0,0,1,0,.37c0,.27.05.62.09,1.07.07,1,.18,2.37.31,4.15.24,3.63.6,8.83,1,15.24.9,12.86,2,30.65,3.75,50.24.24,2.67.51,5.31.81,7.88.17,1.29.31,2.58.59,3.79a30,30,0,0,0,1.18,3.58c1.74,4.69,3.6,9.12,5.38,13.26v.06c1.88,12.06,3.47,22.27,4.6,29.49l1.36,8.37c.17.95.3,1.68.4,2.21s.17.75.16.76a5,5,0,0,1-.24-.74c-.11-.5-.28-1.23-.47-2.2-.38-1.93-.88-4.76-1.5-8.35-1.23-7.18-2.88-17.38-4.78-29.47l0,.06c-1.8-4.14-3.67-8.57-5.43-13.27a30.07,30.07,0,0,1-1.19-3.62c-.3-1.29-.44-2.57-.61-3.86-.31-2.59-.58-5.23-.81-7.9-1.72-19.61-2.79-37.4-3.6-50.27L286.53,289c-.09-1.78-.16-3.17-.2-4.15,0-.45,0-.81,0-1.08A1.75,1.75,0,0,1,286.29,283.42Z" style="fill: rgb(69, 90, 100); transform-origin: 296.105px 353.655px; user-select: auto;" id="ellgy33ge0aim" class="animable"></path><path d="M297.31,152.67s-.3,4.55,3.4,4.55c5.2,0,16.1-10,16.1-10l-21,50.12V258L278,259.82s-2.09-.3-2.51-3.3c-.83-5.87-.71-16.57-1.39-21-2.12-13.7-6.28-21.16-5.69-32,.87-16.13,23.57-44,23.57-44Z" style="fill: rgb(255, 255, 255); transform-origin: 292.582px 203.52px; user-select: auto;" id="elfqxs8mfuy9d" class="animable"></path><path d="M319.25,140.91a137.3,137.3,0,0,1-8.78,14.21c-4.54,6.31-33.3,50.37-33.3,50.37l11.49,89.38,1.28,7.57a3.78,3.78,0,0,0,4.52,3.08l50.8-8.93a4.61,4.61,0,0,0,3.61-5.89L326.19,227l14.65-56.57s-.54-8.24-9.46-16.6c-1.7-1.59-8.71-7.4-9.87-9Z" style="fill: rgb(255, 114, 94); transform-origin: 313.121px 223.257px; user-select: auto;" id="el9guxzg7utk6" class="animable"></path><g id="elx5fcmcjxln" style="user-select: auto;"><g style="opacity: 0.3; transform-origin: 306.405px 239.636px; user-select: auto;" class="animable"><path d="M280.78,233.58s23.39,18.55,34.77,18.72,17.3-9.47,17.3-9.47l-22.89.63-30-16.49Z" id="elkuv5lwyt7ul" class="animable" style="transform-origin: 306.405px 239.636px; user-select: auto;"></path></g></g><path d="M263.42,216s21.1,13.94,25,16.59,22.31,13.33,24.71,14.1,17.29.87,20-4.19,4.58-15.86,4.58-15.86l3.59-50.55a20.35,20.35,0,0,0-3.64-13.22c-2.18-3.08-5.06-5.86-8.18-5.39-6.65,1-20.95,17.07-20.26,25.33s.71,31.26.71,31.26l-37.67-12.47Z" style="fill: rgb(255, 114, 94); transform-origin: 302.389px 202.255px; user-select: auto;" id="elgn4gkaxg12e" class="animable"></path><path d="M337.69,162.87a11.08,11.08,0,0,1,.69,1,18.27,18.27,0,0,1,1.6,3.07,20,20,0,0,1,1.38,5.4,41.39,41.39,0,0,1-.17,7.53c-.78,11.26-1.9,27.29-3.23,46.47h0q-.57,3.24-1.38,6.55a56.71,56.71,0,0,1-2,6.65,13.75,13.75,0,0,1-1.6,3.24,7.92,7.92,0,0,1-2.88,2.29,22.44,22.44,0,0,1-7.13,2.12,30.84,30.84,0,0,1-7.63.2,10.4,10.4,0,0,1-3.79-1c-1.17-.58-2.31-1.22-3.45-1.85q-6.87-3.84-13.86-8c-5.59-3.24-10.78-6.9-15.94-10.27l-15-10-.2-.13.13-.2,8.87-14.64.1-.16.18.06L310,213.94l-.22.15c.77-9.39,1.38-16.87,1.8-22,.22-2.55.39-4.52.51-5.87.06-.65.1-1.16.14-1.51s.06-.52.06-.52,0,.18,0,.52-.06.86-.1,1.52c-.1,1.35-.24,3.33-.42,5.88-.38,5.15-.94,12.62-1.65,22v.22l-.21-.07-37.69-12.65.28-.1-8.86,14.65-.07-.33,15,9.95c5.18,3.38,10.34,7,15.91,10.25q7,4.17,13.85,8c1.14.63,2.28,1.26,3.43,1.84a10,10,0,0,0,3.62,1,30.31,30.31,0,0,0,7.5-.19,22.13,22.13,0,0,0,7-2.05,7.63,7.63,0,0,0,2.72-2.15,13.14,13.14,0,0,0,1.54-3.12,56.07,56.07,0,0,0,2-6.6c.55-2.19,1-4.37,1.39-6.5v0c1.41-19.17,2.58-35.2,3.41-46.46a41.49,41.49,0,0,0,.23-7.49,19.82,19.82,0,0,0-1.3-5.37,20.23,20.23,0,0,0-1.53-3.08c-.2-.34-.37-.58-.47-.75Z" style="fill: rgb(38, 50, 56); transform-origin: 302.279px 205.204px; user-select: auto;" id="el9hphlz6gnra" class="animable"></path><path d="M283.58,195.58a3.76,3.76,0,0,1,.46-.53c.34-.38.8-.87,1.36-1.48l5-5.43,7.51-8c2.87-3,5.94-6.34,9.57-9.52l0,.38-.3-.34-2.54-2.81-.42-.47.63,0,4.7.24-.23.13,9.46-16.47,2.8-4.78.77-1.27c.18-.29.28-.44.3-.43a3.16,3.16,0,0,1-.22.47c-.18.34-.41.78-.7,1.31l-2.67,4.86L309.75,168l-.08.13h-.16l-4.7-.24.21-.43,2.53,2.81.31.34.17.19-.2.18c-3.57,3.13-6.67,6.49-9.56,9.45l-7.58,7.94c-2.16,2.26-3.92,4.08-5.15,5.32-.61.62-1.09,1.1-1.43,1.41A3,3,0,0,1,283.58,195.58Z" style="fill: rgb(38, 50, 56); transform-origin: 303.115px 170.19px; user-select: auto;" id="eltgq4vdzlba" class="animable"></path><g id="elz6htyci9c" style="user-select: auto;"><g style="opacity: 0.3; transform-origin: 296.515px 181.72px; user-select: auto;" class="animable"><polygon points="281.89 198.38 310.5 171.41 308.06 168.74 310.5 168.74 311.14 165.06 309.53 167.9 304.82 167.66 307.6 170.2 283.83 195.33 281.89 198.38" id="ellzfz0p7vj2o" class="animable" style="transform-origin: 296.515px 181.72px; user-select: auto;"></polygon></g></g><path d="M300,268.66l.48-.12,1.46-.31,5.52-1.16,19.28-3.92.17,0,.09.15,5.31,8.65.2.32-.37.07-.63.12-28.12,5.28-.14,0-.05-.14-2.4-6.61c-.25-.72-.46-1.29-.61-1.73a4.12,4.12,0,0,1-.19-.59,5.91,5.91,0,0,1,.28.63c.17.44.41,1,.7,1.75l2.54,6.43-.19-.11,28.08-5.45.63-.12-.17.39-5.3-8.66.26.12-19.14,3.64-5.61,1-1.52.26A3.78,3.78,0,0,1,300,268.66Z" style="fill: rgb(38, 50, 56); transform-origin: 316.255px 270.445px; user-select: auto;" id="elku82taeiwb" class="animable"></path><g id="elyg60s9g5szh" style="user-select: auto;"><g style="opacity: 0.3; transform-origin: 315.845px 274.755px; user-select: auto;" class="animable"><polygon points="300.27 269.51 302.3 280 331.42 274.75 330.61 272.32 303.31 277.53 300.27 269.51" id="elmlo94bwouwc" class="animable" style="transform-origin: 315.845px 274.755px; user-select: auto;"></polygon></g></g><path d="M317.31,222.92c-.15.07-1.36-2.33-3.53-4.78s-4.39-4-4.3-4.11a17.58,17.58,0,0,1,7.83,8.89Z" style="fill: rgb(38, 50, 56); transform-origin: 313.394px 218.476px; user-select: auto;" id="elb0t2g0vgguv" class="animable"></path><path d="M212.46,190.38s-7.3-4.37-10.22-7.17c0,0-4.25-1.34-6.2,1.34,0,0-4.5,1.24-5.1,2.08s-4.38,6.67-4.38,6.67,2,6.95,2.19,7.3c.36.76,1.18,1.56,1.87.72a1.46,1.46,0,0,0,.32-1v-.46l1.09-.77s.49,2.7,1.95,2.28a25.38,25.38,0,0,0,4.74-2.85s4.62,2.63,7.05,2.9a76.23,76.23,0,0,1,8,1.79L216.23,190Z" style="fill: rgb(255, 190, 157); transform-origin: 201.395px 193.042px; user-select: auto;" id="elonrjbls31vd" class="animable"></path><path d="M190.73,200.45s-.17.19-.57.11a1.49,1.49,0,0,1-1-1.2,21.59,21.59,0,0,1,0-5.08,46.39,46.39,0,0,1,.8-5,8.58,8.58,0,0,1,.54-2c.18,0-.39,3.17-.82,7a29.66,29.66,0,0,0-.18,5,1.26,1.26,0,0,0,.74,1.07C190.52,200.49,190.72,200.41,190.73,200.45Z" style="fill: rgb(235, 153, 110); transform-origin: 189.87px 193.93px; user-select: auto;" id="el5jxt0evt9bk" class="animable"></path><path d="M199.29,189.05a5.84,5.84,0,0,1-3.45,1.6l.21-.19-.06.26a16.4,16.4,0,0,1-1.2,3.86,15.9,15.9,0,0,1,.69-4l.07-.25,0-.17.17,0A25.63,25.63,0,0,0,199.29,189.05Z" style="fill: rgb(235, 153, 110); transform-origin: 197.04px 191.815px; user-select: auto;" id="elyqjrnulpbaf" class="animable"></path><path d="M205.21,190a3.59,3.59,0,0,0-4-.82l-.76,1-5.76,4.8a8.85,8.85,0,0,0-2.58,2.91,3,3,0,0,0,.6,3.58c1.18.9,2.93.39,4.08-.54s2-2.23,3.18-3.1c1.86-1.37,4.56-1.74,5.7-3.74A3.59,3.59,0,0,0,205.21,190Z" style="fill: rgb(255, 190, 157); transform-origin: 198.936px 195.416px; user-select: auto;" id="elb4fc1dwqm1" class="animable"></path><path d="M200.77,188.15a3.19,3.19,0,0,1-.51,2.09,7.77,7.77,0,0,1-1.45,1.87,19.07,19.07,0,0,1-2.25,1.75,14,14,0,0,0-3.81,3.27,12.44,12.44,0,0,0-1,1.84,3.37,3.37,0,0,1,.67-2.05,8.64,8.64,0,0,1,1.54-1.78,24.17,24.17,0,0,1,2.28-1.71,20.07,20.07,0,0,0,2.22-1.68,8.06,8.06,0,0,0,1.46-1.69A10.34,10.34,0,0,0,200.77,188.15Z" style="fill: rgb(235, 153, 110); transform-origin: 196.269px 193.56px; user-select: auto;" id="el1irq75qb39y" class="animable"></path><path d="M229.74,211.25s.21-7.16,2-9.29,12.42-4.84,12.42-4.84l26.64,6.18-6.19,10-1.87-1.76s-8.38,2.52-12.52,1.61A47.06,47.06,0,0,1,243,211l-4.34.3s-3.13,3.24-4.14,3.24-2.12-.91-1.62-1.92l-.9-1.52S230.15,212.16,229.74,211.25Z" style="fill: rgb(255, 190, 157); transform-origin: 250.27px 205.83px; user-select: auto;" id="el3qwvhbcsmb5" class="animable"></path><path d="M243.73,206.26a4.49,4.49,0,0,1-1.9.65,32.64,32.64,0,0,0-4.65.91,6.49,6.49,0,0,0-3.34,3.06,11.18,11.18,0,0,1-1,1.71,5.55,5.55,0,0,1,.68-1.88,8,8,0,0,1,1.21-1.85,5.56,5.56,0,0,1,2.27-1.53,22.21,22.21,0,0,1,4.77-.79C243,206.41,243.7,206.19,243.73,206.26Z" style="fill: rgb(235, 153, 110); transform-origin: 238.285px 209.418px; user-select: auto;" id="elij7xobqxys" class="animable"></path><path d="M241.62,201c0,.07-.85.21-2.17.68a21.78,21.78,0,0,0-2.26.91,11,11,0,0,0-2.52,1.5,5.82,5.82,0,0,0-.86,1.21c-.25.43-.48.85-.68,1.26a12.13,12.13,0,0,0-.87,2.26c-.35,1.34-.29,2.21-.38,2.22a4.59,4.59,0,0,1,0-2.3,10.56,10.56,0,0,1,.79-2.39c.2-.43.43-.87.68-1.31a5.82,5.82,0,0,1,.95-1.34A10.71,10.71,0,0,1,237,202.1a18.88,18.88,0,0,1,2.36-.83A5.47,5.47,0,0,1,241.62,201Z" style="fill: rgb(235, 153, 110); transform-origin: 236.677px 206.009px; user-select: auto;" id="eltwf30f95gob" class="animable"></path></g><defs style="user-select: auto;">     <filter id="active" height="200%" style="user-select: auto;">         <feMorphology in="SourceAlpha" result="DILATED" operator="dilate" radius="2" style="user-select: auto;"></feMorphology>                <feFlood flood-color="#32DFEC" flood-opacity="1" result="PINK" style="user-select: auto;"></feFlood>        <feComposite in="PINK" in2="DILATED" operator="in" result="OUTLINE" style="user-select: auto;"></feComposite>        <feMerge style="user-select: auto;">            <feMergeNode in="OUTLINE" style="user-select: auto;"></feMergeNode>            <feMergeNode in="SourceGraphic" style="user-select: auto;"></feMergeNode>        </feMerge>    </filter>    <filter id="hover" height="200%" style="user-select: auto;">        <feMorphology in="SourceAlpha" result="DILATED" operator="dilate" radius="2" style="user-select: auto;"></feMorphology>                <feFlood flood-color="#ff0000" flood-opacity="0.5" result="PINK" style="user-select: auto;"></feFlood>        <feComposite in="PINK" in2="DILATED" operator="in" result="OUTLINE" style="user-select: auto;"></feComposite>        <feMerge style="user-select: auto;">            <feMergeNode in="OUTLINE" style="user-select: auto;"></feMergeNode>            <feMergeNode in="SourceGraphic" style="user-select: auto;"></feMergeNode>        </feMerge>            <feColorMatrix type="matrix" values="0   0   0   0   0                0   1   0   0   0                0   0   0   0   0                0   0   0   1   0 " style="user-select: auto;"></feColorMatrix>    </filter></defs></svg>
